<!--<?xml version="1.0" encoding="UTF-8"?>-->
<svg width="20px" height="20px" viewBox="0 0 20 20" version="1.1" xmlns="http://www.w3.org/2000/svg" xmlns:xlink="http://www.w3.org/1999/xlink">
    <!-- Generator: Sketch 52.5 (67469) - http://www.bohemiancoding.com/sketch -->
    <!--<title>ic_list_contact</title>-->
    <!--<desc>Created with Sketch.</desc>-->
    <!--<g id="ic_list_contact" stroke="none" stroke-width="1" fill="none" fill-rule="evenodd">-->
        <path d="M11.1165933,17.5241301 L11.385557,15.9695374 L10.2502765,14.868893 C9.85622175,14.489569 9.71547672,13.9765588 9.87184437,13.5008452 C10.0282278,13.0251472 10.4441919,12.6955726 10.9852312,12.6178391 L12.3582145,12.4188568 C12.2988046,12.3784354 12.2456342,12.338014 12.1955915,12.2944832 C12.0235698,12.1452504 11.9016065,11.986674 11.8265424,11.8250038 C11.7514784,11.6633337 11.707691,11.4954292 11.6983081,11.3337591 C11.688925,11.168964 11.6983081,11.0072939 11.7295847,10.8487175 C11.7514784,10.7212501 11.7858828,10.6124231 11.8265424,10.5222522 C11.8672021,10.4320969 11.9203725,10.3574727 11.9860378,10.2921765 C12.0517345,10.2299897 12.1236552,10.1678029 12.2112298,10.1118504 C12.2987888,10.0527729 12.3863635,9.98436736 12.4833212,9.89732142 C12.5677525,9.82269722 12.6428166,9.72008895 12.7147529,9.58638725 C12.7804339,9.45581053 12.8429873,9.3189995 12.8961419,9.18220409 C12.9493123,9.02673702 12.999355,8.85884819 13.0400147,8.69095937 C13.1463396,8.65986595 13.246425,8.60389781 13.3433827,8.51683625 C13.4278298,8.44221205 13.5028781,8.33961941 13.5748144,8.2059177 C13.6404954,8.07223164 13.6936658,7.89810852 13.7249425,7.67425155 C13.7468204,7.50323777 13.7436928,7.36331739 13.7186871,7.24519366 C13.6936658,7.12703867 13.6561338,7.03375842 13.6154741,6.95913423 C13.5748144,6.8720883 13.5153887,6.80679212 13.4403404,6.76637067 C13.4497077,6.34351584 13.4247021,5.9175673 13.3590211,5.49471245 C13.3089784,5.13404445 13.2151483,4.75162669 13.0806743,4.34431856 C12.9462003,3.93701044 12.7460296,3.5639207 12.4801936,3.22501809 C12.3613422,3.0757697 12.2081022,2.92964627 12.0141868,2.78661655 C11.8265267,2.64360245 11.6044937,2.51611945 11.3605357,2.39798009 C11.1134656,2.27982511 10.8507572,2.18654486 10.5692829,2.1119363 C10.2878085,2.03732773 9.9875838,2 9.68107236,2 C9.43400233,2 9.18067695,2.02487473 8.92109624,2.06529617 C8.65838787,2.1119363 8.4019191,2.18343553 8.14546606,2.28915314 C7.88901301,2.39487075 7.63570337,2.54099419 7.38548995,2.72755469 C7.13527653,2.91411519 6.91010017,3.15039389 6.70683319,3.43645331 C6.49415178,3.74113755 6.33151307,4.08625883 6.21893273,4.46869223 C6.10633669,4.85111 6.02814499,5.211778 5.98750103,5.55068061 C5.931203,5.95487939 5.912437,6.35906255 5.92180429,6.76015198 C5.83424531,6.86897894 5.76856429,6.97780589 5.72790461,7.09592964 C5.68413298,7.20164725 5.65598397,7.32602092 5.64034562,7.46905063 C5.62157961,7.61206472 5.64034562,7.77685981 5.69351598,7.95407667 C5.74979829,8.13440286 5.81235164,8.27121389 5.88741567,8.36760347 C5.9624797,8.46397744 6.03127268,8.53860163 6.09695368,8.59146044 C6.17201771,8.64742859 6.24708173,8.68161572 6.32213004,8.70338111 C6.3753004,8.87128556 6.42847074,9.03606503 6.4816411,9.19462584 C6.53481146,9.33143687 6.59109375,9.46513856 6.65677479,9.59884025 C6.72245581,9.73252631 6.79439217,9.83513459 6.88196687,9.90974316 C7.06648355,10.0589915 7.22597889,10.2020056 7.3698516,10.338801 C7.51370861,10.4756121 7.59502796,10.6715006 7.61692165,10.926451 C7.62630466,11.0881211 7.63255998,11.2373695 7.63255998,11.3741649 C7.63255998,11.5140853 7.60753864,11.644662 7.56062362,11.772145 C7.51370861,11.899628 7.42614963,12.0270954 7.30417058,12.1545784 C7.18220725,12.2820458 7.01018552,12.4157475 6.78500916,12.5525429 C6.50979011,12.7328847 6.18765605,12.8696801 5.81860698,12.9660697 C5.44957361,13.0624593 3.84203096,13.6127815 3.49485983,13.7309209 C3.15084781,13.8459665 2.84747975,14.0045273 2.59102672,14.2066345 C2.33770134,14.4056167 2.17819029,14.7040979 2.11252498,15.0958437 C2.00618428,15.7736489 1.98427489,15.8824759 2.04058862,16.3177681 C2.09688665,16.7499509 2.18444563,17.007995 2.30329699,17.0950566 C2.4002547,17.1665715 2.67547374,17.253633 3.13520948,17.3562257 C3.59496091,17.4588339 6.48476877,17.9998281 9.84058342,17.9998281 C10.2784255,17.9998281 10.7006449,17.9905001 11.1072103,17.9718597 C11.0884443,17.8257206 11.0915719,17.6764722 11.1165933,17.5241301 Z"></path>
        <path d="M17.7531585,13.6936244 L16.0799349,13.4510957 C15.8234975,13.4137836 15.5201295,13.1961453 15.4044058,12.9629604 L14.6569246,11.4550078 C14.6006423,11.3399622 14.5224506,11.2809003 14.4473866,11.2809003 C14.3723225,11.2809003 14.2972742,11.3399622 14.2378486,11.4550078 L13.4903674,12.9629604 C13.3746594,13.193036 13.0712913,13.4137836 12.8148383,13.4510957 L11.1416146,13.6936244 C10.8851616,13.7309209 10.8257359,13.9081533 11.013396,14.0884795 L12.2237405,15.2606544 C12.4082572,15.440965 12.5239809,15.7954143 12.4801936,16.0503803 L12.1955915,17.7075656 C12.1643148,17.8910012 12.2362512,17.9998281 12.3644699,17.9998281 C12.4145126,17.9998281 12.4708106,17.9842814 12.5333639,17.9500787 L14.0283105,17.1665715 C14.1440185,17.107494 14.2941466,17.0764162 14.4442589,17.0764162 C14.594387,17.0764162 14.747627,17.107494 14.860223,17.1665715 L16.3551696,17.9500787 C16.417723,17.984297 16.477133,17.9998281 16.524048,17.9998281 C16.6522823,17.9998281 16.724203,17.8910012 16.692942,17.7075656 L16.40834,16.0503803 C16.3645526,15.7954143 16.4802606,15.4409806 16.664793,15.2606388 L17.8751376,14.0884795 C18.0659096,13.9081533 18.0096116,13.7309209 17.7531585,13.6936244 Z"></path>
    <!--</g>-->
</svg>
