
<svg width="20px" height="20px" xmlns="http://www.w3.org/2000/svg">
    <!-- Generator: Sketch 52.5 (67469) - http://www.bohemiancoding.com/sketch -->

        <!--<rect id="Rectangle" fill="#000000" opacity="0" x="1" y="1" width="18" height="18"></rect>-->
        <path d="M13.09375,10.84375 C10.9,10.84375 9.15625,12.5875 9.15625,14.78125 C9.15625,16.975 10.9,18.71875 13.09375,18.71875 C15.2875,18.71875 17.03125,16.975 17.03125,14.78125 C17.03125,12.5875 15.2875,10.84375 13.09375,10.84375 Z M14.5,15.625 L12.8125,15.625 C12.475,15.625 12.25,15.4 12.25,15.0625 L12.25,13.9375 C12.25,13.6 12.475,13.375 12.8125,13.375 C13.15,13.375 13.375,13.6 13.375,13.9375 L13.375,14.5 L14.5,14.5 C14.8375,14.5 15.0625,14.725 15.0625,15.0625 C15.0625,15.4 14.8375,15.625 14.5,15.625 Z"></path>
        <path d="M8.3125,14.78125 C8.3125,12.1375 10.45,10 13.09375,10 C14.3875,10 15.625,10.50625 16.46875,11.40625 L16.46875,4.375 C16.46875,2.8 15.23125,1.5625 13.65625,1.5625 L4.65625,1.5625 C3.7,1.5625 2.96875,2.29375 2.96875,3.25 L2.96875,16.75 C2.96875,17.70625 3.7,18.4375 4.65625,18.4375 L9.94375,18.38125 C8.93125,17.5375 8.3125,16.24375 8.3125,14.78125 Z M6.00625,4.9375 L9.15625,4.9375 C9.4375,4.9375 9.6625,5.1625 9.6625,5.5 C9.6625,5.8375 9.4375,6.0625 9.15625,6.0625 L6.00625,6.0625 C5.725,6.0625 5.5,5.8375 5.5,5.5 C5.5,5.1625 5.725,4.9375 6.00625,4.9375 Z M5.5,8.875 C5.5,8.5375 5.725,8.3125 6.0625,8.3125 L12.53125,8.3125 C12.86875,8.3125 13.09375,8.5375 13.09375,8.875 C13.09375,9.2125 12.86875,9.4375 12.53125,9.4375 L6.0625,9.4375 C5.725,9.4375 5.5,9.2125 5.5,8.875 Z"></path>
</svg>
