
<svg width="20px" height="20px" xmlns="http://www.w3.org/2000/svg" >
    <!-- Generator: Sketch 52.5 (67469) - http://www.bohemiancoding.com/sketch -->

        <!--<rect id="Rectangle" fill="#000000" opacity="0" x="-1" y="-1" width="22" height="22"></rect>-->
        <path d="M10.0429688,1.45566406 C5.31855469,1.45566406 1.475,5.29921875 1.475,10.0236328 C1.475,14.7501953 5.31855469,18.59375 10.0429688,18.59375 C14.7673828,18.59375 18.6109375,14.7501953 18.6109375,10.0236328 C18.6109375,5.30136719 14.7673828,1.45566406 10.0429688,1.45566406 Z M15.3667969,13.7554688 C14.7244141,12.5802734 13.7039063,11.6435547 12.4685547,11.1021484 C11.7917969,11.6070312 10.9517578,11.9056641 10.0429688,11.9056641 C9.13417969,11.9056641 8.29414063,11.6070312 7.61738281,11.1021484 C6.38203125,11.6414063 5.36152344,12.5802734 4.71914063,13.7554688 C3.97792969,12.6984375 3.53964844,11.4115234 3.53964844,10.0257812 C3.53964844,6.44003906 6.45722656,3.52246094 10.0429688,3.52246094 C13.6287109,3.52246094 16.5462891,6.44003906 16.5462891,10.0257812 C16.5462891,11.4115234 16.1101563,12.6984375 15.3667969,13.7554688 Z M6.70859375,7.84511719 C6.70859375,9.68664165 8.20144429,11.1794922 10.0429688,11.1794922 C11.8844932,11.1794922 13.3773438,9.68664165 13.3773438,7.84511719 C13.3773438,6.00359272 11.8844932,4.51074219 10.0429688,4.51074219 C8.20144429,4.51074219 6.70859375,6.00359272 6.70859375,7.84511719 Z"></path>

</svg>
