<!--<?xml version="1.0" encoding="UTF-8"?>-->
<svg width="20px" height="20px" xmlns="http://www.w3.org/2000/svg">
    <!-- Generator: Sketch 52.5 (67469) - http://www.bohemiancoding.com/sketch -->
    <!--<title>ic_list_recharge</title>-->
    <!--<desc>Created with Sketch.</desc>-->
    <!--<g id="ic_list_recharge" stroke="none" stroke-width="1" fill="none" fill-rule="evenodd">-->
        <!--<rect id="Rectangle" fill="#000000" opacity="0" x="2" y="2" width="16" height="16"></rect>-->
        <path d="M9.6,10 L8,10 C7.7790861,10 7.6,10.1790861 7.6,10.4 C7.6,10.6209139 7.7790861,10.8 8,10.8 L9.6,10.8 L9.6,12 L8,12 C7.7790861,12 7.6,12.1790861 7.6,12.4 C7.6,12.6209139 7.7790861,12.8 8,12.8 L9.6,12.8 L9.6,14.4 C9.6,14.6209139 9.7790861,14.8 10,14.8 C10.2209139,14.8 10.4,14.6209139 10.4,14.4 L10.4,12.8 L12,12.8 C12.2209139,12.8 12.4,12.6209139 12.4,12.4 C12.4,12.1790861 12.2209139,12 12,12 L10.4,12 L10.4,10.8 L12,10.8 C12.2209139,10.8 12.4,10.6209139 12.4,10.4 C12.4,10.1790861 12.2209139,10 12,10 L9.6,10 Z M9.6,3.8 L9,3.8 C8.7790861,3.80000001 8.60000001,3.9790861 8.60000001,4.2 C8.60000001,4.4209139 8.7790861,4.59999999 9,4.6 L9.6,4.6 L9.6,5.2 C9.6,5.4209139 9.7790861,5.6 10,5.6 C10.2209139,5.6 10.4,5.4209139 10.4,5.2 L10.4,4.6 L11,4.6 C11.2209139,4.6 11.4,4.4209139 11.4,4.2 C11.4,3.9790861 11.2209139,3.8 11,3.8 L10.4,3.8 L10.4,3.2 C10.4,2.9790861 10.2209139,2.8 10,2.8 C9.7790861,2.8 9.6,2.9790861 9.6,3.2 L9.6,3.8 Z M12.885,6.4 C13.2225308,5.86037289 13.4010298,5.23649305 13.4,4.6 C13.4011934,3.81237373 13.1277712,3.04897 12.6268,2.4412 C15.7548,3.5282 18,6.502 18,10 C18,14.4182 14.4182,18 10,18 C5.5818,18 2,14.4182 2,10 C2,6.502 4.2452,3.5282 7.3732,2.4412 C6.87222875,3.04897 6.59880659,3.81237373 6.6,4.6 C6.6,5.2614 6.7888,5.8782 7.1156,6.4 L6.8,6.4 C6.57908611,6.40000001 6.40000002,6.57908611 6.40000002,6.8 C6.40000002,7.02091389 6.57908611,7.19999999 6.8,7.2 L13.2,7.2 C13.4209139,7.19999999 13.6,7.02091389 13.6,6.8 C13.6,6.57908611 13.4209139,6.40000001 13.2,6.4 L12.885,6.4 Z M11.8768,6.4 L8.1302,6.4 C7.6782,5.9322 7.4,5.302 7.4,4.6 C7.4,3.164 8.564,2 10,2 C11.436,2 12.6,3.164 12.6,4.6 C12.6,5.2982 12.3248,5.933 11.8768,6.4 Z M9.4,9.2 C9.4,8.9790861 9.2209139,8.8 9,8.8 C8.7790861,8.8 8.6,8.9790861 8.6,9.2 L8.6,10 L9.4,10 L9.4,9.2 Z M11.4,9.2 C11.4,8.9790861 11.2209139,8.8 11,8.8 C10.7790861,8.8 10.6,8.9790861 10.6,9.2 L10.6,10 L11.4,10 L11.4,9.2 Z"></path>
    <!--</g>-->
</svg>
