
<svg width="20px" height="20px" xmlns="http://www.w3.org/2000/svg">
    <!-- Generator: Sketch 52.5 (67469) - http://www.bohemiancoding.com/sketch -->

        <path d="M11.9040989,12.1127392 C11.5770454,12.3711238 11.1445018,12.4289396 10.7692926,12.2879104 C10.5941215,12.2220459 10.3930861,12.3067288 10.3084397,12.4749185 C10.1944021,12.6972113 10.0968236,12.9312655 10.0180553,13.1735528 C9.95809742,13.3570326 10.052149,13.5558022 10.2308471,13.6322521 C10.6493768,13.8098511 10.9432881,14.2250327 10.9432881,14.7084312 C10.9432881,15.1918297 10.6493768,15.6070113 10.2308471,15.7846103 C10.0533247,15.859884 9.95809742,16.0586537 10.0180553,16.2433096 C10.0968236,16.4855969 10.1944021,16.7196511 10.3084397,16.9442962 C10.3930861,17.1113098 10.5929458,17.1971689 10.7692926,17.1313043 C11.185471,16.9737 11.6721881,17.0630875 12.007247,17.3982909 C12.1458926,17.5369963 12.2421603,17.7014994 12.2963797,17.8762148 C11.5036175,17.941881 10.6304926,17.9893291 9.71764706,17.9982929 C9.68623072,17.9994641 9.65485763,17.9992945 9.62352941,17.9990789 C9.5922012,17.9992945 9.56082811,17.9994641 9.52941176,17.9995871 C6.30766347,17.9666567 3.58068636,17.4556481 3.13520948,17.3562257 C2.67547374,17.253633 2.4002547,17.1665715 2.30329699,17.0950566 C2.18444563,17.007995 2.09688665,16.7499509 2.04058862,16.3177681 C1.98427489,15.8824759 2.00618428,15.7736489 2.11252498,15.0958437 C2.17819029,14.7040979 2.33770134,14.4056167 2.59102672,14.2066345 C2.84747975,14.0045273 3.15084781,13.8459665 3.49485983,13.7309209 C3.84203096,13.6127815 5.44957361,13.0624593 5.81860698,12.9660697 C6.18765605,12.8696801 6.50979011,12.7328847 6.78500916,12.5525429 C7.01018552,12.4157475 7.18220725,12.2820458 7.30417058,12.1545784 C7.42614963,12.0270954 7.51370861,11.899628 7.56062362,11.772145 C7.60753864,11.644662 7.63255998,11.5140853 7.63255998,11.3741649 C7.63255998,11.2373695 7.62630466,11.0881211 7.61692165,10.926451 C7.59502796,10.6715006 7.51370861,10.4756121 7.3698516,10.338801 C7.22597889,10.2020056 7.06648355,10.0589915 6.88196687,9.90974316 C6.79439217,9.83513459 6.72245581,9.73252631 6.65677479,9.59884025 C6.59109375,9.46513856 6.53481146,9.33143687 6.4816411,9.19462584 C6.42847074,9.03606503 6.3753004,8.87128556 6.32213004,8.70338111 C6.24708173,8.68161572 6.17201771,8.64742859 6.09695368,8.59146044 C6.03127268,8.53860162 5.9624797,8.46397744 5.88741567,8.36760347 C5.81235164,8.27121389 5.74979829,8.13440286 5.69351598,7.95407667 C5.64034562,7.77685981 5.62157961,7.61206472 5.64034562,7.46905062 C5.65598397,7.32602092 5.68413298,7.20164725 5.72790461,7.09592964 C5.76856429,6.97780589 5.83424531,6.86897894 5.92180429,6.76015198 C5.912437,6.35906255 5.931203,5.95487939 5.98750103,5.55068061 C6.02814499,5.211778 6.10633669,4.85111 6.21893273,4.46869223 C6.33151307,4.08625883 6.49415178,3.74113755 6.70683319,3.43645331 C6.91010017,3.15039389 7.13527653,2.91411519 7.38548995,2.72755469 C7.63570337,2.54099419 7.88901301,2.39487075 8.14546606,2.28915314 C8.4019191,2.18343553 8.65838787,2.1119363 8.92109624,2.06529617 C9.12783591,2.03310304 9.33060776,2.01077138 9.52941176,2.00301359 L9.52941176,2.00017746 C9.54159284,2.00005915 9.55378467,2 9.56598646,2 C9.58512989,2 9.60431088,2.00014933 9.62352941,2.00044366 C9.64274795,2.00014933 9.66192893,2 9.68107236,2 C9.69327415,2 9.70546598,2.00005915 9.71764706,2.00017746 L9.71764706,2.00301359 C9.91645107,2.01077138 10.1192229,2.03310304 10.3259626,2.06529617 C10.588671,2.1119363 10.8451397,2.18343553 11.1015928,2.28915314 C11.3580458,2.39487075 11.6113555,2.54099419 11.8615689,2.72755469 C12.1117823,2.91411519 12.3369587,3.15039389 12.5402256,3.43645331 C12.752907,3.74113755 12.9155458,4.08625883 13.0281261,4.46869223 C13.1407221,4.85111 13.2189138,5.211778 13.2595578,5.55068061 C13.3158558,5.95487939 13.3346218,6.35906255 13.3252545,6.76015198 C13.4128135,6.86897894 13.4784945,6.97780589 13.5191542,7.09592964 C13.5629258,7.20164725 13.5910749,7.32602092 13.6067132,7.46905062 C13.6254792,7.61206472 13.6067132,7.77685981 13.5535428,7.95407667 C13.4972605,8.13440286 13.4347072,8.27121389 13.3596432,8.36760347 C13.2845791,8.46397744 13.2157861,8.53860162 13.1501051,8.59146044 C13.0750411,8.64742859 12.9999771,8.68161572 12.9249288,8.70338111 C12.8717584,8.87128556 12.8185881,9.03606503 12.7654177,9.19462584 C12.7122474,9.33143687 12.6559651,9.46513856 12.590284,9.59884025 C12.524603,9.73252631 12.4526667,9.83513459 12.365092,9.90974316 C12.1805753,10.0589915 12.0210799,10.2020056 11.8772072,10.338801 C11.7333502,10.4756121 11.6520309,10.6715006 11.6301372,10.926451 C11.6207542,11.0881211 11.6144988,11.2373695 11.6144988,11.3741649 C11.6144988,11.5140853 11.6395202,11.644662 11.6864352,11.772145 C11.7282177,11.8856814 11.8022378,11.9992055 11.9040989,12.1127392 Z"></path>
        <path d="M17.8384884,15.4609919 C17.5455176,15.3366726 17.3397797,15.0460455 17.3397797,14.7076666 C17.3397797,14.3692876 17.5455176,14.0786605 17.8384884,13.9543412 C17.9627541,13.9016496 18.0285902,13.7625108 17.9874427,13.6348983 C17.9388885,13.4875264 17.8812819,13.3442711 17.8146228,13.2059557 C17.7570162,13.0857529 17.6129997,13.0264749 17.4895569,13.0775199 C17.1932943,13.1993692 16.8402481,13.1409145 16.5991233,12.8996857 C16.3530607,12.6535171 16.2971,12.2896156 16.4295952,11.9891088 C16.484733,11.8647895 16.4361789,11.7174177 16.3160279,11.6540231 C16.144854,11.5634594 15.9646276,11.4868919 15.7778175,11.4259672 C15.6494371,11.3839786 15.5111812,11.4506664 15.4585123,11.5749857 C15.3342466,11.8689061 15.0437447,12.0747327 14.7046886,12.0747327 C14.3656325,12.0747327 14.0751306,11.8680827 13.9508649,11.5741624 C13.8998419,11.4490198 13.7615861,11.382332 13.6332056,11.4243206 C13.4595628,11.4811287 13.2916807,11.5511098 13.1312051,11.6334404 C13.014346,11.6935418 12.9559164,11.8343272 13.0028247,11.9569998 C13.1139231,12.2484503 13.0522018,12.5909458 12.8168376,12.8264114 C12.5822964,13.0610537 12.2415944,13.1228017 11.9502695,13.013302 C11.8276497,12.9671968 11.686925,13.0264749 11.6276725,13.1442077 C11.5478462,13.2998126 11.4795412,13.4636506 11.4244034,13.6332517 C11.3824329,13.7616875 11.448269,13.9008263 11.5733577,13.9543412 C11.8663285,14.0786605 12.0720664,14.3692876 12.0720664,14.7076666 C12.0720664,15.0460455 11.8663285,15.3366726 11.5733577,15.4609919 C11.449092,15.5136835 11.3824329,15.6528223 11.4244034,15.7820814 C11.4795412,15.9516825 11.5478462,16.1155205 11.6276725,16.272772 C11.686925,16.3896815 11.8268268,16.4497829 11.9502695,16.4036778 C12.2415944,16.2933547 12.5822964,16.355926 12.8168376,16.5905683 C13.0522018,16.8260339 13.1131002,17.1677061 13.0028247,17.4599799 C12.9550935,17.5867691 13.0201066,17.7267312 13.1410805,17.7876558 C13.2933266,17.8650466 13.4513333,17.9317344 13.6159236,17.9860727 C13.7492418,18.0305312 13.8949042,17.96549 13.9467502,17.8345843 C14.0669011,17.5324308 14.3615178,17.3191945 14.7063345,17.3191945 C15.0511513,17.3191945 15.3457679,17.5324308 15.4659189,17.8345843 C15.5177648,17.96549 15.6634273,18.0305312 15.7967454,17.9860727 C15.9152505,17.946554 16.0304637,17.9012721 16.1423851,17.8494038 C16.2666508,17.7925957 16.3341328,17.650987 16.2855787,17.5241978 C16.1753032,17.2327473 16.2362016,16.8902518 16.4715658,16.6556095 C16.7200972,16.406971 17.0896024,16.3518094 17.3908027,16.4909482 C17.5134225,16.5477564 17.6607309,16.5000046 17.726567,16.3822718 C17.8319048,16.1929113 17.9191377,15.9920245 17.9874427,15.7829047 C18.0294132,15.6528223 17.9627541,15.5136835 17.8384884,15.4609919 Z M14.7055116,15.8248933 C14.0899437,15.8248933 13.5862974,15.3210298 13.5862974,14.7051966 C13.5862974,14.0893634 14.0899437,13.5854999 14.7055116,13.5854999 C15.3210794,13.5854999 15.8247258,14.0893634 15.8247258,14.7051966 C15.8247258,15.3210298 15.3210794,15.8248933 14.7055116,15.8248933 Z"></path>

</svg>
